<?xml version="1.0" encoding="UTF-8"?>
<svg version="1.1" xmlns="http://www.w3.org/2000/svg" width="1200" height="1200">
<path d="M0 0 C3.97939214 0.46192092 6.83302624 1.83577074 10.26171875 3.8515625 C11.28458984 4.44775391 12.30746094 5.04394531 13.36132812 5.65820312 C14.45896484 6.30724609 15.55660156 6.95628906 16.6875 7.625 C17.84916922 8.30478918 19.01128693 8.98381248 20.17382812 9.66210938 C22.58817446 11.07158303 25.00055922 12.48432987 27.41162109 13.89941406 C32.92318583 17.13055521 38.4629938 20.31272995 44 23.5 C46.16679965 24.74976947 48.3334659 25.99977024 50.5 27.25 C52.10875 28.178125 52.10875 28.178125 53.75 29.125 C65.66666667 36 77.58333333 42.875 89.5 49.75 C90.57266113 50.36883057 91.64532227 50.98766113 92.75048828 51.62524414 C94.91557071 52.87435518 97.08060982 54.12354129 99.24560547 55.37280273 C104.68615706 58.51202309 110.12747216 61.64990563 115.5703125 64.78515625 C126.02206199 70.80747329 136.46299548 76.84669337 146.875 82.9375 C155.55262452 88.01275247 164.26613537 93.02244553 173 98 C179.76715198 101.85708473 186.53138458 105.71840164 193.265625 109.6328125 C194.26271484 110.2110376 195.25980469 110.7892627 196.28710938 111.38500977 C198.25236551 112.53912813 200.20707441 113.71140948 202.15039062 114.90209961 C207.2677677 118.00815425 212.22508093 120.55674656 217.828125 122.68359375 C224.49518945 125.41345324 230.66434863 128.03137131 235 134 C237.78365831 143.45146081 236.51859394 153.39606411 235.57550049 163.06578064 C234.98169309 169.54092233 235.09377095 175.81043633 235.45703125 182.296875 C236.7305338 208.74790372 236.7305338 208.74790372 232.13183594 215.90917969 C227.20964717 220.51748975 221.44732669 222.72016736 215.13330078 224.84130859 C209.79725361 226.81457335 205.06036835 229.78464091 200.1875 232.6875 C197.69014513 234.08621404 195.19220494 235.48382388 192.69213867 236.87768555 C190.84076898 237.90330099 190.84076898 237.90330099 190 240 C191.25296875 240.36158203 191.25296875 240.36158203 192.53125 240.73046875 C197.29167055 242.47273979 201.39641902 244.97627197 205.66577148 247.68823242 C210.01537006 250.40644285 214.17121226 252.50749017 219.00390625 254.25 C225.3417837 256.7673078 230.98013181 259.29324138 235 265 C237.63652613 274.45431563 236.37841652 284.40426862 235.50161743 294.05377197 C234.9598808 300.51600799 235.16896602 306.73461231 235.640625 313.1953125 C237.29516668 339.39464639 237.29516668 339.39464639 231.75390625 347.13916016 C225.6100557 352.54452661 218.38985345 355.50042197 210.85449219 358.41015625 C205.08978907 360.69184436 199.86871565 363.91615169 194.56057739 367.08862305 C191.65902976 368.80885415 188.72038674 370.46314477 185.78515625 372.125 C176.45733856 377.44081039 167.19169795 382.86222292 157.92675781 388.28662109 C143.55043686 396.70278897 129.15029945 405.0760615 114.71582031 413.39208984 C103.4520275 419.88499878 92.22447236 426.43942556 81 433 C68.68467196 440.19816699 56.36012617 447.37896238 44 454.5 C35.17590607 459.58434938 26.36180216 464.68534756 17.5625 469.8125 C16.54349609 470.40546875 15.52449219 470.9984375 14.47460938 471.609375 C13.53552734 472.15722656 12.59644531 472.70507812 11.62890625 473.26953125 C10.3924939 473.99039917 10.3924939 473.99039917 9.13110352 474.72583008 C7.38970715 475.76699718 5.68815812 476.87456125 4 478 C0.01709363 477.66771323 -2.85170028 476.15325044 -6.26171875 474.1484375 C-7.28458984 473.55224609 -8.30746094 472.95605469 -9.36132812 472.34179688 C-10.45896484 471.69275391 -11.55660156 471.04371094 -12.6875 470.375 C-13.84916922 469.69521082 -15.01128693 469.01618752 -16.17382812 468.33789062 C-18.58817446 466.92841697 -21.00055922 465.51567013 -23.41162109 464.10058594 C-28.92318583 460.86944479 -34.4629938 457.68727005 -40 454.5 C-42.16679965 453.25023053 -44.3334659 452.00022976 -46.5 450.75 C-47.5725 450.13125 -48.645 449.5125 -49.75 448.875 C-87.66666667 427 -125.58333333 405.125 -163.5 383.25 C-165.1092334 382.3216333 -165.1092334 382.3216333 -166.75097656 381.37451172 C-168.91447476 380.12628966 -171.07788643 378.87791761 -173.24121094 377.62939453 C-179.80986316 373.83872245 -186.37850583 370.04807501 -192.95947266 366.27880859 C-195.14173065 365.01621416 -197.31354847 363.73538907 -199.47412109 362.43603516 C-204.72577699 359.3001543 -209.7832681 356.60253929 -215.5234375 354.46875 C-221.67560091 351.99720363 -227.20746708 349.6564254 -231 344 C-233.55388433 334.51773005 -232.38700963 324.61857308 -231.51507568 314.95536804 C-230.97163338 308.4800551 -231.13055813 302.21390003 -231.53515625 295.734375 C-232.95329982 269.26880394 -232.95329982 269.26880394 -227.91943359 261.99267578 C-222.44802452 257.13360882 -216.12296077 254.65699874 -209.28662109 252.265625 C-203.95723257 250.21336307 -199.30379306 247.1771118 -194.5 244.125 C-192.84629775 243.12338561 -191.19030375 242.12553763 -189.53125 241.1328125 C-188.3540279 240.4221048 -187.17688531 239.71126525 -186 239 C-187.53140625 238.16082031 -187.53140625 238.16082031 -189.09375 237.3046875 C-198.44572862 232.15612771 -207.71670152 226.88019114 -216.9375 221.5 C-218.50951172 220.58323486 -218.50951172 220.58323486 -220.11328125 219.64794922 C-227.59361639 215.27092241 -227.59361639 215.27092241 -231 213 C-231.35644531 210.04296875 -231.35644531 210.04296875 -231.328125 206.1875 C-231.32779266 205.48291656 -231.32746033 204.77833313 -231.32711792 204.05239868 C-231.31590446 200.05298599 -231.23393271 196.05480483 -231.15966797 192.05615234 C-231.12950601 190.33692063 -231.09972866 188.61768213 -231.0703125 186.8984375 C-231.0449794 185.57916763 -231.0449794 185.57916763 -231.01913452 184.23324585 C-230.94143072 178.64442339 -231.12510054 173.12561502 -231.49525452 167.54919434 C-233.38055056 138.69591375 -233.38055056 138.69591375 -227.78759766 130.92675781 C-221.82718198 125.77624338 -214.9004976 123.0648852 -207.56689453 120.39697266 C-201.95678501 118.19977576 -196.99337068 115.08415454 -191.875 111.9375 C-189.89345747 110.77380919 -187.90907638 109.61493827 -185.921875 108.4609375 C-183.94786881 107.30737356 -181.97391041 106.15372783 -180 105 C-166.59382119 97.16424334 -153.17079317 89.35962289 -139.71582031 81.60791016 C-128.4520275 75.11500122 -117.22447236 68.56057444 -106 62 C-102.04214526 59.68667962 -98.08389337 57.37404251 -94.125 55.0625 C-93.13781982 54.48604736 -92.15063965 53.90959473 -91.13354492 53.31567383 C-83.83388651 49.05798345 -76.51299394 44.83803948 -69.1875 40.625 C-59.17392802 34.86450429 -49.22870618 28.99617869 -39.30395508 23.08422852 C-29.49402699 17.25688107 -19.59794419 11.58725519 -9.67041016 5.96313477 C-8.54940918 5.32690186 -7.4284082 4.69066895 -6.2734375 4.03515625 C-5.27747559 3.4719165 -4.28151367 2.90867676 -3.25537109 2.32836914 C-1.10538068 1.18885619 -1.10538068 1.18885619 0 0 Z M-6.21484375 81.9375 C-7.81138794 82.8968042 -7.81138794 82.8968042 -9.44018555 83.87548828 C-10.00877289 84.22097717 -10.57736023 84.56646606 -11.16317749 84.92242432 C-14.20954656 86.77253511 -17.26934207 88.60019923 -20.328125 90.4296875 C-20.96191574 90.8093869 -21.59570648 91.1890863 -22.248703 91.58029175 C-28.84217785 95.52163768 -35.50840748 99.33117016 -42.1875 103.125 C-53.86311324 109.76601884 -65.48166064 116.5000307 -77.07324219 123.28662109 C-91.43708859 131.69548613 -105.82399808 140.06281114 -120.24682617 148.37011719 C-128.90681143 153.36116992 -137.54523231 158.38848933 -146.17382812 163.43359375 C-151.10190213 166.31430507 -156.03748951 169.17898781 -161 172 C-161 172.66 -161 173.32 -161 174 C-159.95211304 174.60303955 -159.95211304 174.60303955 -158.88305664 175.21826172 C-156.79373066 176.4210354 -154.70472955 177.62437349 -152.6159668 178.828125 C-150.23978238 180.19751171 -147.86215784 181.56435385 -145.48364258 182.9296875 C-140.17462729 185.98168363 -134.87899299 189.04628953 -129.6640625 192.2578125 C-128.89570068 192.72719238 -128.12733887 193.19657227 -127.33569336 193.68017578 C-125.9382973 194.53871915 -124.54798485 195.40893745 -123.16625977 196.29248047 C-119.63454275 198.48907059 -119.63454275 198.48907059 -115.59570312 198.76220703 C-112.8094776 197.94405465 -110.66776672 196.85482956 -108.17578125 195.3671875 C-107.24314453 194.81611328 -106.31050781 194.26503906 -105.34960938 193.69726562 C-104.34736328 193.09591797 -103.34511719 192.49457031 -102.3125 191.875 C-100.14235965 190.59041478 -97.97177137 189.30658605 -95.80078125 188.0234375 C-94.67881348 187.35795898 -93.5568457 186.69248047 -92.40087891 186.00683594 C-86.95842679 182.79528128 -81.47887269 179.64887699 -76 176.5 C-64.64490112 169.95980793 -53.32068369 163.36792682 -42.00732422 156.75585938 C-38.90367348 154.9437587 -35.79783148 153.1354649 -32.69140625 151.328125 C-31.13280884 150.42054443 -31.13280884 150.42054443 -29.54272461 149.49462891 C-27.49889982 148.30519647 -25.45416377 147.11732825 -23.40844727 145.93115234 C-19.01163185 143.3748558 -14.63837101 140.79862652 -10.3359375 138.0859375 C-9.6457251 137.65450439 -8.9555127 137.22307129 -8.24438477 136.77856445 C-7.00488555 135.99833627 -5.77278486 135.20615489 -4.55053711 134.39916992 C-2.13082088 132.87971175 -0.57324025 131.94576154 2.32226562 132.21972656 C5.45782764 133.13340784 7.94243002 134.46749592 10.76953125 136.10546875 C11.89311035 136.75201416 13.01668945 137.39855957 14.17431641 138.06469727 C15.38714046 138.77213329 16.59986584 139.47973851 17.8125 140.1875 C19.07437253 140.91716408 20.33658429 141.64624177 21.59912109 142.37475586 C25.40487868 144.5738255 29.20285646 146.78610095 33 149 C34.06943848 149.62229492 35.13887695 150.24458984 36.24072266 150.88574219 C41.16910584 153.7539452 46.09359276 156.62872677 51.015625 159.5078125 C60.5378345 165.07237329 70.09956236 170.56868019 79.65625 176.07373047 C84.26777425 178.73034016 88.8785214 181.38829557 93.48876953 184.04711914 C95.66664882 185.30312898 97.84469506 186.55884939 100.02294922 187.81420898 C101.52365967 188.67961304 101.52365967 188.67961304 103.0546875 189.5625 C104.03791992 190.11421875 105.02115234 190.6659375 106.03417969 191.234375 C109 193 109 193 112.03613281 195.203125 C115.01778373 197.27598177 117.54295175 198.87992793 121 200 C125.33366851 199.01753944 128.42574735 196.5570387 132 194 C134.33121786 192.64853544 136.66691183 191.32439832 139.0234375 190.01953125 C140.24208118 189.32566363 141.45952371 188.62968238 142.67578125 187.93164062 C145.16460543 186.50582736 147.65412274 185.08124751 150.14453125 183.65820312 C155.07681802 180.8370284 155.07681802 180.8370284 160 178 C161.43013428 177.20855591 161.43013428 177.20855591 162.88916016 176.40112305 C163.5857373 175.93875244 164.28231445 175.47638184 165 175 C165 174.34 165 173.68 165 173 C163.9162207 172.38294189 163.9162207 172.38294189 162.81054688 171.75341797 C150.17548317 164.55590142 137.54821437 157.34826509 125 150 C116.3650412 144.94366193 107.69393663 139.95392867 99 135 C89.27875494 129.46014067 79.59105132 123.86625068 69.93310547 118.21655273 C59.43691336 112.07856591 48.90186662 106.0085231 38.36572266 99.93945312 C34.8510675 97.91417962 31.33744531 95.88712521 27.82421875 93.859375 C26.93899536 93.34847572 26.93899536 93.34847572 26.03588867 92.82725525 C23.20307244 91.19230093 20.37031 89.55725345 17.53759766 87.92211914 C15.5543268 86.77770678 13.57003105 85.63506777 11.58447266 84.49462891 C9.98846752 83.57164162 8.39824753 82.63846378 6.81787109 81.68896484 C1.27713341 78.38363322 -0.79128532 78.64783884 -6.21484375 81.9375 Z M-5.69921875 212.5703125 C-6.65054688 213.13089355 -7.601875 213.69147461 -8.58203125 214.26904297 C-10.11923828 215.1877417 -10.11923828 215.1877417 -11.6875 216.125 C-13.84754069 217.40123728 -16.00770064 218.67727271 -18.16796875 219.953125 C-19.28606934 220.61634766 -20.40416992 221.27957031 -21.55615234 221.96289062 C-27.18573033 225.29831398 -32.84498087 228.58296034 -38.5 231.875 C-40.53136869 233.05969235 -42.56262974 234.24456928 -44.59375 235.4296875 C-46.0625 236.28645833 -47.53125 237.14322917 -49 238 C-46.01808224 240.33179415 -42.94217818 242.26902162 -39.66015625 244.15234375 C-38.60658936 244.75884766 -37.55302246 245.36535156 -36.4675293 245.99023438 C-35.34386963 246.63283203 -34.22020996 247.27542969 -33.0625 247.9375 C-30.71598238 249.27966242 -28.36967244 250.62218725 -26.0234375 251.96484375 C-25.43368637 252.30188324 -24.84393524 252.63892273 -24.23631287 252.98617554 C-20.39789663 255.18427593 -16.58727031 257.42465452 -12.7890625 259.69140625 C-11.84023193 260.25158447 -10.89140137 260.8117627 -9.91381836 261.38891602 C-8.13187908 262.44193091 -6.35630207 263.5058074 -4.58813477 264.58178711 C-3.78947998 265.04979736 -2.9908252 265.51780762 -2.16796875 266 C-1.13579224 266.61875 -1.13579224 266.61875 -0.08276367 267.25 C2.72655601 268.2616317 4.16358442 267.90253216 7 267 C8.97066367 265.98954099 10.90068605 264.89802608 12.796875 263.75390625 C13.91344482 263.08576904 15.03001465 262.41763184 16.18041992 261.72924805 C17.37047933 261.00732727 18.5603358 260.28507187 19.75 259.5625 C21.57146737 258.46482085 23.39406135 257.36902938 25.21672058 256.27333069 C26.42740968 255.54519831 27.63754572 254.81614556 28.84712219 254.08616638 C32.39193767 251.95031066 35.95858143 249.8616323 39.55859375 247.8203125 C40.7511377 247.14053345 40.7511377 247.14053345 41.96777344 246.44702148 C43.41547452 245.62556417 44.86778505 244.81216228 46.32519531 244.00805664 C48.41704523 242.84742719 48.41704523 242.84742719 51 241 C51 240.01 51 239.02 51 238 C50.33170166 237.6282666 49.66340332 237.2565332 48.97485352 236.87353516 C36.75032543 230.06756559 24.54927281 223.23830187 12.5234375 216.0859375 C11.64896973 215.56918457 11.64896973 215.56918457 10.75683594 215.04199219 C9.5318487 214.31544334 8.31146906 213.58109368 7.09472656 212.84082031 C1.72711816 209.63933512 -0.38847107 209.41422855 -5.69921875 212.5703125 Z M-123.65625 280.08984375 C-125.63337889 281.32688883 -127.58065618 282.61257038 -129.5 283.9375 C-131.59305713 285.27582381 -133.6868175 286.61304838 -135.78125 287.94921875 C-136.81765625 288.63161621 -137.8540625 289.31401367 -138.921875 290.01708984 C-144.28822115 293.47405871 -149.88748425 296.51756781 -155.46289062 299.62084961 C-157.34077608 300.69271992 -159.17614052 301.83858004 -161 303 C-161 303.66 -161 304.32 -161 305 C-160.34854004 305.37584229 -159.69708008 305.75168457 -159.02587891 306.13891602 C-50.5 368.75 -50.5 368.75 -47.24536133 370.62768555 C-45.09416776 371.86875254 -42.94296345 373.10980093 -40.79174805 374.35083008 C-35.74037001 377.26498344 -30.6890969 380.17931818 -25.63821411 383.09432983 C-23.84933082 384.12673478 -22.06041283 385.15907956 -20.27148438 386.19140625 C-18.02662364 387.48685948 -15.7818281 388.7824257 -13.53710938 390.078125 C-11.55261321 391.22326863 -9.56595459 392.36467699 -7.57666016 393.50146484 C-5.99646745 394.42047402 -4.42963386 395.36358369 -2.88818359 396.34619141 C0.50415515 398.52227535 0.50415515 398.52227535 4.41796875 398.74536133 C7.06420255 397.98146649 9.03788384 397.01426554 11.38671875 395.5859375 C12.22895996 395.08006104 13.07120117 394.57418457 13.93896484 394.05297852 C14.84598145 393.49924561 15.75299805 392.9455127 16.6875 392.375 C18.67236921 391.18224833 20.65808152 389.99089881 22.64453125 388.80078125 C23.68432129 388.1763916 24.72411133 387.55200195 25.79541016 386.90869141 C31.12224238 383.73596748 36.49874005 380.65047546 41.875 377.5625 C50.30565811 372.71124171 58.72518151 367.84198118 67.125 362.9375 C68.60033203 362.07608398 68.60033203 362.07608398 70.10546875 361.19726562 C73.07059896 359.46533346 76.03537163 357.73279104 79 356 C92.39739175 348.16937928 105.8113174 340.36933477 119.2578125 332.62329102 C129.58795503 326.66902542 139.8979343 320.67978714 150.17871094 314.640625 C152.23012432 313.4476951 154.29216935 312.27299045 156.36035156 311.109375 C157.46088867 310.48546875 158.56142578 309.8615625 159.6953125 309.21875 C160.70867676 308.65091797 161.72204102 308.08308594 162.76611328 307.49804688 C163.5032959 307.00369141 164.24047852 306.50933594 165 306 C165 305.34 165 304.68 165 304 C164.30140869 303.59797363 163.60281738 303.19594727 162.88305664 302.78173828 C160.79373066 301.5789646 158.70472955 300.37562651 156.6159668 299.171875 C154.23978238 297.80248829 151.86215784 296.43564615 149.48364258 295.0703125 C144.17462729 292.01831637 138.87899299 288.95371047 133.6640625 285.7421875 C132.89570068 285.27280762 132.12733887 284.80342773 131.33569336 284.31982422 C129.9382973 283.46128085 128.54798485 282.59106255 127.16625977 281.70751953 C123.62196026 279.50386997 123.62196026 279.50386997 119.56835938 279.25146484 C116.93249479 280.01967405 114.95497126 280.99007928 112.61328125 282.4140625 C111.77104004 282.91993896 110.92879883 283.42581543 110.06103516 283.94702148 C109.15401855 284.50075439 108.24700195 285.0544873 107.3125 285.625 C105.32763079 286.81775167 103.34191848 288.00910119 101.35546875 289.19921875 C100.31567871 289.8236084 99.27588867 290.44799805 98.20458984 291.09130859 C92.87775762 294.26403252 87.50125995 297.34952454 82.125 300.4375 C70.72404759 306.99795639 59.35507066 313.61155014 47.99853516 320.24853516 C44.92062401 322.04636405 41.84137971 323.84188908 38.76171875 325.63671875 C37.21859009 326.53656494 37.21859009 326.53656494 35.64428711 327.45458984 C33.61357018 328.63765982 31.58185456 329.81901747 29.54907227 330.99853516 C24.96476283 333.66284854 20.40234089 336.35095535 15.890625 339.13671875 C15.11130615 339.61270508 14.3319873 340.08869141 13.52905273 340.57910156 C12.09906825 341.45545729 10.67606216 342.34335321 9.26196289 343.24511719 C4.64793197 346.05732068 4.64793197 346.05732068 1.64599609 345.79174805 C-1.44132847 344.86794351 -3.91081399 343.54811141 -6.69921875 341.9296875 C-8.36936035 340.96748291 -8.36936035 340.96748291 -10.07324219 339.98583984 C-11.27807059 339.28235636 -12.48282116 338.57873958 -13.6875 337.875 C-14.94265708 337.14859988 -16.198197 336.42286091 -17.45410156 335.69775391 C-20.04038086 334.20318775 -22.62436857 332.70477169 -25.20654297 331.203125 C-28.72703244 329.15662755 -32.25484038 327.12325274 -35.78515625 325.09375 C-46.1709905 319.12168093 -56.53325235 313.11055648 -66.875 307.0625 C-75.82804729 301.82896403 -84.81039806 296.64852908 -93.8125 291.5 C-94.39505554 291.16638458 -94.97761108 290.83276917 -95.57781982 290.48904419 C-98.3425937 288.90637813 -101.11150922 287.33531815 -103.89892578 285.79272461 C-107 284 -107 284 -109.86279297 281.99047852 C-115.08912739 278.50268884 -117.82574604 277.19029062 -123.65625 280.08984375 Z " fill="#FFFFFF" transform="translate(598,276)"/>
<path d="M0 0 C61.75362319 0 61.75362319 0 75 12 C80.96299147 18.16433923 83.02740732 26.4681 83.4375 34.875 C83.09097647 43.94236558 80.43202691 52.82137466 73.98046875 59.35546875 C59.28936811 71.55458782 40.96112095 70.12829372 23 70 C23 78.25 23 86.5 23 95 C15.41 95 7.82 95 0 95 C0 63.65 0 32.3 0 0 Z M23 19 C23 29.56 23 40.12 23 51 C26.444375 51.061875 29.88875 51.12375 33.4375 51.1875 C34.50411865 51.21481201 35.5707373 51.24212402 36.66967773 51.27026367 C44.37578462 51.33656656 51.003848 50.55921317 57 45.4375 C59.88939971 40.47134425 60.78219935 35.61595664 59.5546875 29.94140625 C57.98707774 25.75210431 55.76172497 23.30833123 52 21 C45.83711928 18.71232565 40.081366 18.76558569 33.5625 18.875 C30.076875 18.91625 26.59125 18.9575 23 19 Z " fill="#FFFFFF" transform="translate(604,841)"/>
<path d="M0 0 C0.86189941 0.00088623 1.72379883 0.00177246 2.61181641 0.00268555 C12.7769771 0.18718312 23.66524893 1.96762733 32.4375 7.375 C34.16419098 11.74445738 32.25820587 15.05458028 30.5 19.125 C30.20931641 19.82238281 29.91863281 20.51976562 29.61914062 21.23828125 C28.90198297 22.95475695 28.17106598 24.66547232 27.4375 26.375 C26.61507812 26.03726563 25.79265625 25.69953125 24.9453125 25.3515625 C12.875125 20.52906264 2.11301626 17.17911934 -10.58203125 21.42578125 C-12.77148994 22.47516678 -14.04581185 23.48382095 -15.5625 25.375 C-16.076567 28.82659274 -16.05781495 30.62125986 -14.125 33.5625 C-6.88370685 38.68439028 3.31811844 39.91704 11.82226562 41.86132812 C21.34482934 44.20857329 29.80252411 48.09862916 35.4375 56.375 C38.68833098 62.94582858 38.73713832 71.94685089 36.6796875 78.95703125 C35.73283134 80.90666028 34.696577 82.61405315 33.4375 84.375 C32.90125 85.24125 32.365 86.1075 31.8125 87 C22.45508801 96.35741199 10.34398051 98.61729684 -2.4375 98.75 C-16.99106245 98.63004038 -29.41878008 95.47081328 -41.5625 87.375 C-39.2525 81.765 -36.9425 76.155 -34.5625 70.375 C-31.1532125 71.22732187 -28.78023847 72.19893055 -25.6875 73.75 C-14.92403942 78.67371069 -1.99060868 81.76213534 9.546875 77.6171875 C12.38065807 76.01137709 13.41471989 74.43135081 14.625 71.4375 C14.72587493 68.22635991 14.72587493 68.22635991 12.37182617 65.82397461 C9.00498739 63.01402704 6.53740078 62.18799291 2.30078125 61.12890625 C1.62129929 60.95044662 0.94181732 60.771987 0.241745 60.58811951 C-1.91833705 60.0215155 -4.08300451 59.47701199 -6.25 58.9375 C-30.40047714 52.91011281 -30.40047714 52.91011281 -37.50390625 41.62109375 C-40.51721617 35.22753949 -40.39693694 27.60126878 -38.5625 20.875 C-35.43107023 12.54394033 -29.21831386 7.11423168 -21.34765625 3.34765625 C-14.29653067 0.88520145 -7.44716524 -0.01397907 0 0 Z " fill="#FFFFFF" transform="translate(535.5625,839.625)"/>
</svg>
